<svg width="15" height="17" viewBox="0 0 15 17" fill="none" xmlns="http://www.w3.org/2000/svg">
<path d="M14.0621 5.95739C13.9857 6.00195 12.1671 6.94248 12.1671 9.02785C12.2528 11.4061 14.4621 12.2401 14.5 12.2401C14.4621 12.2847 14.1665 13.3763 13.2907 14.5205C12.5956 15.5062 11.8242 16.5 10.6528 16.5C9.5385 16.5 9.1385 15.8431 7.85278 15.8431C6.47203 15.8431 6.08135 16.5 5.0242 16.5C3.85277 16.5 3.02419 15.453 2.29127 14.4766C1.3391 13.1986 0.529778 11.1931 0.501206 9.26747C0.481952 8.24707 0.69189 7.24403 1.22481 6.39206C1.97699 5.20265 3.31985 4.39524 4.78631 4.36862C5.90992 4.33331 6.90992 5.08747 7.59563 5.08747C8.25278 5.08747 9.48135 4.36862 10.8714 4.36862C11.4714 4.36919 13.0714 4.53762 14.0621 5.95739ZM7.5006 4.16488C7.3006 3.23303 7.85278 2.30119 8.36706 1.70677C9.02421 0.987918 10.0621 0.5 10.9571 0.5C11.0143 1.43185 10.6522 2.34575 10.005 3.01136C9.42421 3.73021 8.42421 4.27138 7.5006 4.16488Z" fill="white"/>
</svg>
